<?xml version="1.0" encoding="utf-8"?>
<!-- Generator: Adobe Illustrator 26.3.1, SVG Export Plug-In . SVG Version: 6.00 Build 0)  -->
<svg version="1.1" id="Layer_1" xmlns="http://www.w3.org/2000/svg" xmlns:xlink="http://www.w3.org/1999/xlink" x="0px" y="0px"
	 viewBox="0 0 346.1 297.2" style="enable-background:new 0 0 346.1 297.2;" xml:space="preserve">
<style type="text/css">
	.st0{fill:#8C0770;}
</style>
<path class="st0" d="M111.8,297.2c-16.2,0-21.6-0.9-32.4-1.8c-7.1-0.6-14.2-1.8-21.2-2.7c-0.8,0-1.6-0.2-2.4-0.6
	c-1.8-1.1-4.5-2.2-4.8-3.7s1.6-3.8,3.2-5c8.9-6.9,19.2-10,30.5-11.1c25-2.6,50.2-4.2,74.7-9.2c52-10.7,98.5-33.4,137-70.8
	c12.7-12.4,24-25.8,31.5-42.2c4-8.6,6-18.1,5.7-27.6c-0.1-2.5-1.6-14-2.6-16.9c-6.8-19.7-21.8-29.4-41.6-32.8
	c-16.7-2.9-32.9,0.3-48.8,4.9c-27.1,7.8-51,21.9-73.4,38.7c-4.6,3.4-9.2,6.9-14.8,11.1c1.8-7.7,4.6-13.7,9.1-19.1
	c10.1-12,22.7-21,35.5-29.7c17.6-11.8,36.3-21,57.3-24.8c22.8-4,44.5-1.3,64.2,11.6c17.2,11.3,25.6,28,27.3,48.2
	c1.4,17.7-1.7,34.6-7.7,51.4c-11.6,32.3-32.6,56.8-59.5,77c-15.2,11.4-31.8,20.8-49.4,27.9c-4,1.6-7.9,3.4-11.9,5.3
	c-1.3,0.6-32.9,11.3-47.4,14.4S115.9,297.2,111.8,297.2z"/>
<path class="st0" d="M5.6,177.6c-4.8-21-6.5-42.5-5.1-64c1.9-27,6.7-53.6,20.8-77.3C28.9,23.7,38.6,13,52,6.4
	c24.5-12,50.2-6.8,68.4,13.9c18.9,21.5,27.8,46.6,26.2,75.2c-0.3,5.7-2,11.3-3.1,17l-1.5,0.2c-0.6-1.5-1.2-3-1.8-4.6
	C132.6,84.2,123,61.2,110,39.7c-2.7-4.4-5.9-8.4-9.7-11.9c-9.2-8.3-19.6-9-30.6-3.9c-11.7,5.5-19.2,15.1-25.5,25.9
	C35.2,65,28.9,81.4,25.3,98.6c-5.2,25.5-5.9,51.1-0.5,76.8c0.3,1.6,14.3,45.8,17.7,57.5s5.6,24.3,8.2,36.4c0.1,0.8,0,1.6-0.1,2.3
	c-0.4,0.2-0.8,0.4-1.2,0.6c-6.3-9.7-9-9.3-18.8-29.1S8.4,190.1,5.6,177.6z"/>
</svg>
